<svg id="Image" xmlns="http://www.w3.org/2000/svg" xmlns:xlink="http://www.w3.org/1999/xlink" width="301.043" height="313.219" viewBox="0 0 301.043 313.219">
  <defs>
    <linearGradient id="linear-gradient" x1="0.5" y1="1" x2="0.5" gradientUnits="objectBoundingBox">
      <stop offset="0" stop-color="gray" stop-opacity="0.251"/>
      <stop offset="0.54" stop-color="gray" stop-opacity="0.122"/>
      <stop offset="1" stop-color="gray" stop-opacity="0.102"/>
    </linearGradient>
    <linearGradient id="linear-gradient-2" x1="0.301" y1="1.035" x2="0.713" y2="0.047" xlink:href="#linear-gradient"/>
    <linearGradient id="linear-gradient-3" x1="0.302" y1="1.03" x2="0.714" y2="0.041" xlink:href="#linear-gradient"/>
  </defs>
  <g id="Illustration" transform="translate(0)">
    <g id="Group" transform="translate(102.822 7.145)" opacity="0.8">
      <ellipse id="Oval" cx="52.404" cy="40.431" rx="52.404" ry="40.431" transform="translate(0 0)" fill="url(#linear-gradient)"/>
    </g>
    <ellipse id="Oval-2" data-name="Oval" cx="51.314" cy="39.768" rx="51.314" ry="39.768" transform="translate(103.484 7.697)" fill="#006a9a"/>
    <path id="Path" d="M8.13,44.374C8.13,22.367,31,4.526,59.213,4.526A62.251,62.251,0,0,1,84.668,9.817,59.919,59.919,0,0,0,51.086,0C22.873,0,0,17.841,0,39.848,0,54.625,10.313,67.523,25.634,74.406,14.907,67.1,8.13,56.356,8.13,44.374Z" transform="translate(103.484 7.697)" fill="#fff" opacity="0.1"/>
    <path id="Path-2" data-name="Path" d="M113.746,0,170.62,98.354l56.873,98.35H0l56.873-98.35L113.746,0Z" transform="translate(41.051 63.287)" fill="#335eea" opacity="0.2"/>
    <g id="Group-2" data-name="Group" transform="translate(122.329 160.037)" opacity="0.3">
      <path id="Path-3" data-name="Path" d="M46.264,42.613,50.7,29.5A22.4,22.4,0,0,0,42.353,4.1l.036-.022a22.154,22.154,0,0,0-5.681-2.867h0l-.061-.022-.068-.022h0A22.225,22.225,0,0,0,30.5.028a21.414,21.414,0,0,0-2.2,0,22.507,22.507,0,0,0-3.774.52c-.36.079-.72.168-1.047.265s-.694.2-1.036.312c-.684.226-1.356.48-2.015.77-.331.143-.658.294-.979.455A22.137,22.137,0,0,0,16.66,3.984c-.3.2-.59.416-.878.631A22.22,22.22,0,0,0,8.14,15.222L1.168,35.88A22.082,22.082,0,0,0,.2,45.957c.072.52.162,1.036.266,1.548S.7,48.522.83,49.024c.1.333.2.667.309,1,.166.491.36.982.543,1.462.133.319.273.638.421.953.291.627.615,1.24.964,1.838A19.377,19.377,0,0,0,4.2,56.022c.3.423.622.839.953,1.24a18.744,18.744,0,0,0,1.41,1.552,22.246,22.246,0,0,0,7.556,4.977h0l.122.05a7.759,7.759,0,0,1,.5-.778A4.9,4.9,0,0,1,19.5,60.942c.13.029.259.068.389.107.907.319,1.8.889,2.673,1.168a2.4,2.4,0,0,0,2.018-.025c1.749-.928,1.1-3.856,2.6-5.139a2.338,2.338,0,0,1,.219-.165.674.674,0,0,1-.058-.082c1.159-.717,2.763-.24,4.1.222,1.439.505,3.317.846,4.317-.326.676-.8.626-2.025,1.27-2.867.748-.968,2.159-1.075,3.378-.9l.061.018a3.3,3.3,0,0,0,4.713-3.146A19.553,19.553,0,0,1,46.264,42.613Z" transform="translate(0 0)" fill="url(#linear-gradient-2)"/>
    </g>
    <path id="Path-4" data-name="Path" d="M14.024,60.824a4.624,4.624,0,0,1,4.54-2.048c1.712.391,3.335,2.03,4.857,1.209,2.083-1.119.606-5.234,3.987-5.539a4.414,4.414,0,0,1,2.058.359c1.427.585,3.659,1.245,4.758-.072.646-.775.6-1.955,1.216-2.759a3.358,3.358,0,0,1,3.231-.872l.057.018a3.16,3.16,0,0,0,4.508-3.038,18.86,18.86,0,0,1,1.016-6.931L48.49,28.485a21.689,21.689,0,0,0-13.5-27.367h0A21.505,21.505,0,0,0,7.79,14.7L1.11,34.619A21.7,21.7,0,0,0,13.528,61.577a7.705,7.705,0,0,1,.5-.753Z" transform="translate(123.154 160.784)" fill="#fff"/>
    <circle id="Oval-3" data-name="Oval" cx="2.138" cy="2.138" r="2.138" transform="translate(142.824 171.902)" opacity="0.2"/>
    <circle id="Oval-4" data-name="Oval" cx="2.138" cy="2.138" r="2.138" transform="translate(156.508 176.179)" opacity="0.2"/>
    <ellipse id="Oval-5" data-name="Oval" cx="3.49" cy="2.328" rx="3.49" ry="2.328" transform="translate(145.621 187.473) rotate(-71.4)" fill="#e0e0e0"/>
    <circle id="Oval-6" data-name="Oval" cx="3.421" cy="3.421" r="3.421" transform="translate(194.139 171.047)" fill="#fff"/>
    <circle id="Oval-7" data-name="Oval" cx="1.71" cy="1.71" r="1.71" transform="translate(206.967 166.771)" fill="#fff"/>
    <g id="Group-3" data-name="Group" transform="translate(126.605 19.778)" opacity="0.5">
      <g id="Group-4" data-name="Group" transform="translate(0 0)" opacity="0.3">
        <path id="Path-5" data-name="Path" d="M46.264,42.613,50.7,29.5A22.4,22.4,0,0,0,42.353,4.1l.036-.022a22.154,22.154,0,0,0-5.681-2.867h0l-.061-.022-.068-.022h0A22.225,22.225,0,0,0,30.5.028a21.414,21.414,0,0,0-2.2,0,22.507,22.507,0,0,0-3.774.52c-.36.079-.72.168-1.047.265s-.694.2-1.036.312c-.684.226-1.356.48-2.015.77-.331.143-.658.294-.979.455A22.137,22.137,0,0,0,16.66,3.984c-.3.2-.59.416-.878.631A22.22,22.22,0,0,0,8.14,15.222L1.168,35.88A22.082,22.082,0,0,0,.2,45.957c.072.52.162,1.036.266,1.548S.7,48.522.83,49.024c.1.333.2.667.309,1,.166.491.36.982.543,1.462.133.319.273.638.421.953.291.627.615,1.24.964,1.838A19.377,19.377,0,0,0,4.2,56.022c.3.423.622.839.953,1.24.446.538.914,1.057,1.41,1.552a22.246,22.246,0,0,0,7.556,4.977h0l.122.05a7.759,7.759,0,0,1,.5-.778A4.9,4.9,0,0,1,19.5,60.942c.13.029.259.068.389.107.907.319,1.8.889,2.673,1.168a2.4,2.4,0,0,0,2.018-.025c1.749-.928,1.1-3.856,2.6-5.139a2.338,2.338,0,0,1,.219-.165.674.674,0,0,1-.058-.082c1.159-.717,2.763-.24,4.1.222,1.439.505,3.317.846,4.317-.326.676-.8.626-2.025,1.27-2.867.748-.968,2.159-1.075,3.378-.9h.061a3.3,3.3,0,0,0,4.713-3.146A19.511,19.511,0,0,1,46.264,42.613Z" transform="translate(0 0)" fill="url(#linear-gradient-3)"/>
      </g>
      <path id="Path-6" data-name="Path" d="M14.148,60.759a4.684,4.684,0,0,1,4.58-2.046c1.727.391,3.364,2.028,4.9,1.208,2.1-1.118.612-5.228,4.022-5.533a4.492,4.492,0,0,1,2.076.358c1.439.584,3.691,1.243,4.8-.072.651-.774.6-1.953,1.227-2.756a3.411,3.411,0,0,1,3.26-.871l.058.018a3.184,3.184,0,0,0,4.548-3.035,18.673,18.673,0,0,1,1.025-6.923l4.274-12.653A21.616,21.616,0,0,0,35.3,1.117h0A21.744,21.744,0,0,0,7.858,14.683L1.12,34.582A21.615,21.615,0,0,0,13.647,61.511,7.69,7.69,0,0,1,14.148,60.759Z" transform="translate(1.009 1.201)" fill="#fff"/>
      <ellipse id="Oval-8" data-name="Oval" cx="2.342" cy="2.333" rx="2.342" ry="2.333" transform="translate(20.78 11.563)" opacity="0.2"/>
      <ellipse id="Oval-9" data-name="Oval" cx="2.342" cy="2.333" rx="2.342" ry="2.333" transform="translate(34.099 16.024)" opacity="0.2"/>
    </g>
    <path id="Path-7" data-name="Path" d="M99.584,0a31.406,31.406,0,0,1,1,7.894c0,21.986-23,39.81-51.385,39.81C25.973,47.69,6.348,35.755,0,19.377,4.715,37.6,25.477,51.314,50.384,51.314c28.38,0,51.389-17.824,51.389-39.81A31.636,31.636,0,0,0,99.584,0Z" transform="translate(104.339 35.065)" opacity="0.1"/>
    <g id="Group-5" data-name="Group" transform="translate(49.041 36.871)" opacity="0.8">
      <ellipse id="Oval-10" data-name="Oval" cx="105.756" cy="27.585" rx="105.756" ry="27.585" transform="translate(0 0)" fill="url(#linear-gradient)"/>
    </g>
    <path id="Path-8" data-name="Path" d="M102.628,0C45.95,0,0,11.868,0,26.512H205.257C205.257,11.868,159.306,0,102.628,0Z" transform="translate(52.169 37.63)" fill="#fff"/>
    <path id="Path-9" data-name="Path" d="M102.628,26.512c56.678,0,102.628-11.869,102.628-26.512H0C0,14.643,45.95,26.512,102.628,26.512Z" transform="translate(52.169 64.998)" fill="#fff"/>
    <path id="Path-10" data-name="Path" d="M102.628,26.512c56.678,0,102.628-11.869,102.628-26.512H0C0,14.643,45.95,26.512,102.628,26.512Z" transform="translate(52.169 64.998)" opacity="0.05"/>
    <rect id="Rectangle" width="97.497" height="13.684" rx="6.842" transform="translate(106.049 58.156)" opacity="0.05"/>
    <path id="Path-11" data-name="Path" d="M4.71,2.608a1.409,1.409,0,0,1-.786-1.7A.712.712,0,0,0,3.955.75h0A.705.705,0,0,0,2.686.283h0A.7.7,0,0,0,2.61.421a1.407,1.407,0,0,1-1.7.785.767.767,0,0,0-.157-.031h0A.7.7,0,0,0,.283,2.443h0a.621.621,0,0,0,.138.08,1.409,1.409,0,0,1,.786,1.7.723.723,0,0,0-.031.153h0a.705.705,0,0,0,1.269.471h0a.632.632,0,0,0,.077-.142,1.407,1.407,0,0,1,1.7-.766.767.767,0,0,0,.157.031h0A.7.7,0,0,0,4.848,2.7h0A.621.621,0,0,0,4.71,2.608Z" transform="translate(43.617 17.96)" fill="#4d8af0" opacity="0.5"/>
    <path id="Path-12" data-name="Path" d="M4.709,2.608a1.407,1.407,0,0,1-.769-1.7A.709.709,0,0,0,3.97.75h0A.708.708,0,0,0,2.7.283h0A.7.7,0,0,0,2.62.421a1.414,1.414,0,0,1-1.708.785.773.773,0,0,0-.158-.031h0A.7.7,0,0,0,.284,2.443h0a.624.624,0,0,0,.139.08,1.407,1.407,0,0,1,.769,1.7.721.721,0,0,0-.031.153h0a.708.708,0,0,0,1.274.471h0a.631.631,0,0,0,.077-.142A1.414,1.414,0,0,1,4.22,3.94a.773.773,0,0,0,.158.031h0A.7.7,0,0,0,4.847,2.7h0a.623.623,0,0,0-.139-.1Z" transform="translate(225.782 127.43)" fill="#4d8af0" opacity="0.5"/>
    <path id="Path-13" data-name="Path" d="M4.71,2.608a1.409,1.409,0,0,1-.786-1.7A.712.712,0,0,0,3.955.75h0A.705.705,0,0,0,2.686.283h0A.7.7,0,0,0,2.61.421a1.407,1.407,0,0,1-1.7.785.767.767,0,0,0-.157-.031h0A.7.7,0,0,0,.283,2.443h0a.621.621,0,0,0,.138.08,1.409,1.409,0,0,1,.786,1.7.723.723,0,0,0-.031.153h0a.705.705,0,0,0,1.269.471h0a.632.632,0,0,0,.077-.142,1.407,1.407,0,0,1,1.7-.766.767.767,0,0,0,.157.031h0A.7.7,0,0,0,4.848,2.7h0A.621.621,0,0,0,4.71,2.608Z" transform="translate(24.802 177.889)" fill="#4d8af0" opacity="0.5"/>
    <path id="Path-14" data-name="Path" d="M4.691,2.608a1.409,1.409,0,0,1-.767-1.7A.712.712,0,0,0,3.955.75h0A.705.705,0,0,0,2.686.283h0A.7.7,0,0,0,2.61.421a1.407,1.407,0,0,1-1.7.785.767.767,0,0,0-.157-.031h0A.7.7,0,0,0,.283,2.443h0a.621.621,0,0,0,.138.08,1.409,1.409,0,0,1,.786,1.7.723.723,0,0,0-.031.153h0a.705.705,0,0,0,1.269.471h0a.632.632,0,0,0,.077-.142,1.407,1.407,0,0,1,1.7-.766.767.767,0,0,0,.157.031h0A.7.7,0,0,0,4.848,2.7h0A.621.621,0,0,0,4.691,2.608Z" transform="translate(5.131 59.867)" fill="#4d8af0" opacity="0.5"/>
    <path id="Path-15" data-name="Path" d="M4.71,2.587A1.4,1.4,0,0,1,3.956.9a.712.712,0,0,0,.03-.156h0a.7.7,0,0,0-.452-.7.69.69,0,0,0-.8.237h0a.693.693,0,0,0-.075.137,1.379,1.379,0,0,1-1.673.76.748.748,0,0,0-.155-.03h0a.692.692,0,0,0-.792.44.7.7,0,0,0,.314.855h0a.609.609,0,0,0,.136.08,1.4,1.4,0,0,1,.754,1.687.723.723,0,0,0-.03.152h0a.7.7,0,0,0,.461.731.691.691,0,0,0,.813-.283h0a.628.628,0,0,0,.075-.141,1.379,1.379,0,0,1,1.673-.76.748.748,0,0,0,.155.03h0a.693.693,0,0,0,.7-.456.7.7,0,0,0-.235-.8h0a.61.61,0,0,0-.143-.095Z" transform="translate(222.361 0)" fill="#4d8af0" opacity="0.5"/>
    <g id="Group-6" data-name="Group" transform="translate(36.775 91.833)" opacity="0.5">
      <rect id="Rectangle-2" data-name="Rectangle" width="1.056" height="6.462" transform="translate(2.465 0)" fill="#47e6b1"/>
      <rect id="Rectangle-3" data-name="Rectangle" width="1.14" height="5.987" transform="translate(5.987 2.661) rotate(90)" fill="#47e6b1"/>
    </g>
    <g id="Group-7" data-name="Group" transform="translate(295.056 63.611)" opacity="0.5">
      <rect id="Rectangle-4" data-name="Rectangle" width="1.056" height="6.462" transform="translate(2.465 0)" fill="#47e6b1"/>
      <rect id="Rectangle-5" data-name="Rectangle" width="1.14" height="5.987" transform="translate(5.987 2.661) rotate(90)" fill="#47e6b1"/>
    </g>
    <g id="Group-8" data-name="Group" transform="translate(259.136 162.818)" opacity="0.5">
      <rect id="Rectangle-6" data-name="Rectangle" width="1.056" height="6.462" transform="translate(2.465 0)" fill="#47e6b1"/>
      <rect id="Rectangle-7" data-name="Rectangle" width="1.14" height="5.987" transform="translate(5.987 2.661) rotate(90)" fill="#47e6b1"/>
    </g>
    <circle id="Oval-11" data-name="Oval" cx="2.138" cy="2.138" r="2.138" transform="translate(256.571 27.368)" fill="#f55f44" opacity="0.5"/>
    <circle id="Oval-12" data-name="Oval" cx="2.138" cy="2.138" r="2.138" transform="translate(0 2.566)" fill="#f55f44" opacity="0.5"/>
    <circle id="Oval-13" data-name="Oval" cx="2.138" cy="2.138" r="2.138" transform="translate(64.998 125.72)" fill="#f55f44" opacity="0.5"/>
    <ellipse id="Oval-14" data-name="Oval" cx="11.973" cy="2.566" rx="11.973" ry="2.566" transform="translate(71.84 53.025)" opacity="0.05"/>
    <ellipse id="Oval-15" data-name="Oval" cx="11.973" cy="2.566" rx="11.973" ry="2.566" transform="translate(71.84 71.84)" opacity="0.05"/>
    <ellipse id="Oval-16" data-name="Oval" cx="11.973" cy="2.566" rx="11.973" ry="2.566" transform="translate(210.388 53.025)" opacity="0.05"/>
    <ellipse id="Oval-17" data-name="Oval" cx="11.973" cy="2.566" rx="11.973" ry="2.566" transform="translate(210.388 71.84)" opacity="0.05"/>
    <ellipse id="Oval-18" data-name="Oval" cx="11.973" cy="2.566" rx="11.973" ry="2.566" transform="translate(142.824 41.907)" opacity="0.05"/>
    <ellipse id="Oval-19" data-name="Oval" cx="11.973" cy="2.566" rx="11.973" ry="2.566" transform="translate(151.377 16.249)" opacity="0.05"/>
    <ellipse id="Oval-20" data-name="Oval" cx="11.973" cy="2.566" rx="11.973" ry="2.566" transform="translate(128.285 26.512)" opacity="0.05"/>
    <ellipse id="Oval-21" data-name="Oval" cx="11.973" cy="2.566" rx="11.973" ry="2.566" transform="translate(173.613 30.788)" opacity="0.05"/>
    <ellipse id="Oval-22" data-name="Oval" cx="11.973" cy="2.566" rx="11.973" ry="2.566" transform="translate(142.824 79.537)" opacity="0.05"/>
  </g>
  <text id="_404" data-name="404" transform="translate(149.418 281.219)" font-size="127" font-family="Montserrat-SemiBold, Montserrat" font-weight="600"><tspan x="-128.968" y="0">404</tspan></text>
</svg>
