<svg id="Image" xmlns="http://www.w3.org/2000/svg" xmlns:xlink="http://www.w3.org/1999/xlink" width="273.155" height="284.562" viewBox="0 0 273.155 284.562">
  <defs>
    <linearGradient id="linear-gradient" x1="0.5" y1="1" x2="0.5" gradientUnits="objectBoundingBox">
      <stop offset="0" stop-color="gray" stop-opacity="0.251"/>
      <stop offset="0.54" stop-color="gray" stop-opacity="0.122"/>
      <stop offset="1" stop-color="gray" stop-opacity="0.102"/>
    </linearGradient>
    <linearGradient id="linear-gradient-2" x1="0.301" y1="1.035" x2="0.713" y2="0.047" xlink:href="#linear-gradient"/>
    <linearGradient id="linear-gradient-3" x1="0.302" y1="1.03" x2="0.714" y2="0.041" xlink:href="#linear-gradient"/>
  </defs>
  <g id="Illustration" transform="translate(0)">
    <g id="Group" transform="translate(93.296 6.483)" opacity="0.8">
      <ellipse id="Oval" cx="47.549" cy="36.686" rx="47.549" ry="36.686" transform="translate(0 0)" fill="url(#linear-gradient)"/>
    </g>
    <ellipse id="Oval-2" data-name="Oval" cx="46.561" cy="36.084" rx="46.561" ry="36.084" transform="translate(93.897 6.984)" fill="#006a9a"/>
    <path id="Path" d="M7.377,40.263c0-19.969,20.751-36.157,46.351-36.157a56.485,56.485,0,0,1,23.1,4.8A54.368,54.368,0,0,0,46.354,0C20.754,0,0,16.188,0,36.157,0,49.565,9.358,61.268,23.259,67.513,13.526,60.884,7.377,51.136,7.377,40.263Z" transform="translate(93.897 6.984)" fill="#fff" opacity="0.1"/>
    <path id="Path-2" data-name="Path" d="M103.209,0l51.6,89.243,51.6,89.239H0L51.6,89.243,103.209,0Z" transform="translate(37.248 57.425)" fill="#335eea" opacity="0.2"/>
    <g id="Group-2" data-name="Group" transform="translate(110.997 145.212)" opacity="0.3">
      <path id="Path-3" data-name="Path" d="M41.978,38.666,46,26.769A20.328,20.328,0,0,0,38.429,3.719l.033-.02a20.1,20.1,0,0,0-5.155-2.6h0l-.056-.02-.062-.02h0A20.166,20.166,0,0,0,27.672.026a19.431,19.431,0,0,0-1.995,0A20.422,20.422,0,0,0,22.253.5c-.326.072-.653.153-.95.241s-.63.182-.94.283c-.62.2-1.231.436-1.828.7-.3.13-.6.267-.888.413a20.086,20.086,0,0,0-2.53,1.483c-.271.185-.535.377-.8.572a20.162,20.162,0,0,0-6.934,9.624L1.06,32.556A20.037,20.037,0,0,0,.185,41.7c.065.471.147.94.242,1.4s.212.923.326,1.379c.088.3.18.6.281.9.15.445.326.891.493,1.327.121.289.248.579.382.865.264.569.558,1.125.875,1.668a17.582,17.582,0,0,0,1.032,1.587c.274.384.565.761.865,1.125a17.007,17.007,0,0,0,1.28,1.408,20.185,20.185,0,0,0,6.856,4.516h0l.111.046a7.04,7.04,0,0,1,.457-.706A4.45,4.45,0,0,1,17.689,55.3c.118.026.235.062.353.1.823.289,1.632.806,2.426,1.06a2.182,2.182,0,0,0,1.831-.023c1.587-.842,1-3.5,2.36-4.663a2.121,2.121,0,0,1,.2-.15.611.611,0,0,1-.052-.075c1.051-.65,2.507-.218,3.718.2,1.306.458,3.01.767,3.918-.3.614-.728.568-1.837,1.152-2.6a3.23,3.23,0,0,1,3.065-.819l.055.016a3,3,0,0,0,4.277-2.855A17.742,17.742,0,0,1,41.978,38.666Z" transform="translate(0 0)" fill="url(#linear-gradient-2)"/>
    </g>
    <path id="Path-4" data-name="Path" d="M12.725,55.189a4.2,4.2,0,0,1,4.119-1.859c1.553.355,3.026,1.842,4.407,1.1,1.89-1.016.55-4.749,3.618-5.026a4,4,0,0,1,1.867.325c1.294.531,3.32,1.129,4.317-.065.586-.7.544-1.774,1.1-2.5a3.047,3.047,0,0,1,2.932-.791l.052.016a2.867,2.867,0,0,0,4.09-2.757,17.113,17.113,0,0,1,.922-6.289L44,25.846A19.68,19.68,0,0,0,31.749,1.014h0A19.513,19.513,0,0,0,7.068,13.337L1.007,31.412A19.69,19.69,0,0,0,12.275,55.873a6.992,6.992,0,0,1,.45-.684Z" transform="translate(111.745 145.89)" fill="#fff"/>
    <circle id="Oval-3" data-name="Oval" cx="1.94" cy="1.94" r="1.94" transform="translate(129.593 155.978)" opacity="0.2"/>
    <circle id="Oval-4" data-name="Oval" cx="1.94" cy="1.94" r="1.94" transform="translate(142.01 159.858)" opacity="0.2"/>
    <ellipse id="Oval-5" data-name="Oval" cx="3.167" cy="2.112" rx="3.167" ry="2.112" transform="translate(132.131 170.106) rotate(-71.4)" fill="#e0e0e0"/>
    <circle id="Oval-6" data-name="Oval" cx="3.104" cy="3.104" r="3.104" transform="translate(176.154 155.202)" fill="#fff"/>
    <circle id="Oval-7" data-name="Oval" cx="1.552" cy="1.552" r="1.552" transform="translate(187.794 151.322)" fill="#fff"/>
    <g id="Group-3" data-name="Group" transform="translate(114.877 17.946)" opacity="0.5">
      <g id="Group-4" data-name="Group" transform="translate(0 0)" opacity="0.3">
        <path id="Path-5" data-name="Path" d="M41.978,38.666,46,26.769A20.328,20.328,0,0,0,38.429,3.719l.033-.02a20.1,20.1,0,0,0-5.155-2.6h0l-.056-.02-.062-.02h0A20.166,20.166,0,0,0,27.672.026a19.431,19.431,0,0,0-1.995,0A20.422,20.422,0,0,0,22.253.5c-.326.072-.653.153-.95.241s-.63.182-.94.283c-.62.2-1.231.436-1.828.7-.3.13-.6.267-.888.413a20.086,20.086,0,0,0-2.53,1.483c-.271.185-.535.377-.8.572a20.162,20.162,0,0,0-6.934,9.624L1.06,32.556A20.037,20.037,0,0,0,.185,41.7c.065.471.147.94.242,1.4s.212.923.326,1.379c.088.3.18.6.281.9.15.445.326.891.493,1.327.121.289.248.579.382.865.264.569.558,1.125.875,1.668a17.582,17.582,0,0,0,1.032,1.587c.274.384.565.761.865,1.125.4.488.829.959,1.28,1.408a20.185,20.185,0,0,0,6.856,4.516h0l.111.046a7.04,7.04,0,0,1,.457-.706A4.45,4.45,0,0,1,17.689,55.3c.118.026.235.062.353.1.823.289,1.632.806,2.426,1.06a2.182,2.182,0,0,0,1.831-.023c1.587-.842,1-3.5,2.36-4.663a2.121,2.121,0,0,1,.2-.15.611.611,0,0,1-.052-.075c1.051-.65,2.507-.218,3.718.2,1.306.458,3.01.767,3.918-.3.614-.728.568-1.837,1.152-2.6a3.23,3.23,0,0,1,3.065-.819h.055a3,3,0,0,0,4.277-2.855A17.7,17.7,0,0,1,41.978,38.666Z" transform="translate(0)" fill="url(#linear-gradient-3)"/>
      </g>
      <path id="Path-6" data-name="Path" d="M12.837,55.13a4.25,4.25,0,0,1,4.156-1.857c1.567.354,3.052,1.84,4.446,1.1,1.907-1.014.555-4.744,3.65-5.02a4.076,4.076,0,0,1,1.884.325c1.306.53,3.349,1.128,4.355-.065.591-.7.548-1.772,1.113-2.5a3.1,3.1,0,0,1,2.958-.79l.052.016a2.889,2.889,0,0,0,4.126-2.754,16.943,16.943,0,0,1,.93-6.282l3.878-11.481A19.614,19.614,0,0,0,32.029,1.013h0a19.73,19.73,0,0,0-24.9,12.31L1.016,31.378A19.612,19.612,0,0,0,12.383,55.813,6.979,6.979,0,0,1,12.837,55.13Z" transform="translate(0.915 1.09)" fill="#fff"/>
      <ellipse id="Oval-8" data-name="Oval" cx="2.125" cy="2.117" rx="2.125" ry="2.117" transform="translate(18.855 10.492)" opacity="0.2"/>
      <ellipse id="Oval-9" data-name="Oval" cx="2.125" cy="2.117" rx="2.125" ry="2.117" transform="translate(30.94 14.54)" opacity="0.2"/>
    </g>
    <path id="Path-7" data-name="Path" d="M90.359,0a28.5,28.5,0,0,1,.908,7.163c0,19.949-20.874,36.122-46.625,36.122C23.567,43.272,5.76,32.443,0,17.582,4.278,34.113,23.117,46.561,45.717,46.561c25.751,0,46.628-16.172,46.628-36.122A28.7,28.7,0,0,0,90.359,0Z" transform="translate(94.673 31.816)" opacity="0.1"/>
    <g id="Group-5" data-name="Group" transform="translate(44.498 33.456)" opacity="0.8">
      <ellipse id="Oval-10" data-name="Oval" cx="95.959" cy="25.03" rx="95.959" ry="25.03" transform="translate(0 0)" fill="url(#linear-gradient)"/>
    </g>
    <path id="Path-8" data-name="Path" d="M93.121,0C41.693,0,0,10.768,0,24.056H186.242C186.242,10.768,144.549,0,93.121,0Z" transform="translate(47.337 34.144)" fill="#fff"/>
    <path id="Path-9" data-name="Path" d="M93.121,24.056c51.428,0,93.121-10.77,93.121-24.056H0C0,13.286,41.693,24.056,93.121,24.056Z" transform="translate(47.337 58.977)" fill="#fff"/>
    <path id="Path-10" data-name="Path" d="M93.121,24.056c51.428,0,93.121-10.77,93.121-24.056H0C0,13.286,41.693,24.056,93.121,24.056Z" transform="translate(47.337 58.977)" opacity="0.05"/>
    <rect id="Rectangle" width="88.465" height="12.416" rx="6.208" transform="translate(96.225 52.769)" opacity="0.05"/>
    <path id="Path-11" data-name="Path" d="M4.274,2.366A1.279,1.279,0,0,1,3.561.823.646.646,0,0,0,3.589.681h0A.64.64,0,0,0,2.438.257h0a.632.632,0,0,0-.07.125,1.277,1.277,0,0,1-1.544.712.7.7,0,0,0-.143-.028h0a.639.639,0,0,0-.424,1.15h0a.564.564,0,0,0,.125.073A1.279,1.279,0,0,1,1.1,3.833a.656.656,0,0,0-.028.139h0A.64.64,0,0,0,2.218,4.4h0a.573.573,0,0,0,.07-.129,1.277,1.277,0,0,1,1.544-.7.7.7,0,0,0,.143.028h0A.639.639,0,0,0,4.4,2.453h0A.563.563,0,0,0,4.274,2.366Z" transform="translate(39.576 16.296)" fill="#4d8af0" opacity="0.5"/>
    <path id="Path-12" data-name="Path" d="M4.273,2.366a1.277,1.277,0,0,1-.7-1.543A.644.644,0,0,0,3.6.681h0A.643.643,0,0,0,2.447.257h0a.632.632,0,0,0-.07.125,1.283,1.283,0,0,1-1.55.712.7.7,0,0,0-.143-.028h0a.639.639,0,0,0-.426,1.15h0a.566.566,0,0,0,.126.073,1.277,1.277,0,0,1,.7,1.543.654.654,0,0,0-.028.139h0A.643.643,0,0,0,2.209,4.4h0a.573.573,0,0,0,.07-.129,1.283,1.283,0,0,1,1.55-.7.7.7,0,0,0,.143.028h0A.639.639,0,0,0,4.4,2.453h0a.566.566,0,0,0-.126-.087Z" transform="translate(204.866 115.625)" fill="#4d8af0" opacity="0.5"/>
    <path id="Path-13" data-name="Path" d="M4.274,2.366A1.279,1.279,0,0,1,3.561.823.646.646,0,0,0,3.589.681h0A.64.64,0,0,0,2.438.257h0a.632.632,0,0,0-.07.125,1.277,1.277,0,0,1-1.544.712.7.7,0,0,0-.143-.028h0a.639.639,0,0,0-.424,1.15h0a.564.564,0,0,0,.125.073A1.279,1.279,0,0,1,1.1,3.833a.656.656,0,0,0-.028.139h0A.64.64,0,0,0,2.218,4.4h0a.573.573,0,0,0,.07-.129,1.277,1.277,0,0,1,1.544-.7.7.7,0,0,0,.143.028h0A.639.639,0,0,0,4.4,2.453h0A.563.563,0,0,0,4.274,2.366Z" transform="translate(22.504 161.41)" fill="#4d8af0" opacity="0.5"/>
    <path id="Path-14" data-name="Path" d="M4.257,2.366a1.279,1.279,0,0,1-.7-1.543A.646.646,0,0,0,3.589.681h0A.64.64,0,0,0,2.438.257h0a.632.632,0,0,0-.07.125,1.277,1.277,0,0,1-1.544.712.7.7,0,0,0-.143-.028h0a.639.639,0,0,0-.424,1.15h0a.564.564,0,0,0,.125.073A1.279,1.279,0,0,1,1.1,3.833a.656.656,0,0,0-.028.139h0A.64.64,0,0,0,2.218,4.4h0a.573.573,0,0,0,.07-.129,1.277,1.277,0,0,1,1.544-.7.7.7,0,0,0,.143.028h0A.639.639,0,0,0,4.4,2.453h0A.564.564,0,0,0,4.257,2.366Z" transform="translate(4.656 54.321)" fill="#4d8af0" opacity="0.5"/>
    <path id="Path-15" data-name="Path" d="M4.274,2.347A1.272,1.272,0,0,1,3.59.816.646.646,0,0,0,3.617.675h0a.634.634,0,0,0-.41-.636.626.626,0,0,0-.722.215h0a.629.629,0,0,0-.068.124A1.252,1.252,0,0,1,.9,1.068a.679.679,0,0,0-.14-.028h0a.628.628,0,0,0-.719.4.637.637,0,0,0,.285.776h0a.553.553,0,0,0,.123.072,1.272,1.272,0,0,1,.684,1.531.656.656,0,0,0-.027.138h0a.635.635,0,0,0,.419.664.627.627,0,0,0,.737-.257h0a.57.57,0,0,0,.068-.128,1.252,1.252,0,0,1,1.518-.689.679.679,0,0,0,.14.028h0a.629.629,0,0,0,.631-.414A.637.637,0,0,0,4.4,2.433h0a.554.554,0,0,0-.13-.086Z" transform="translate(201.762 0)" fill="#4d8af0" opacity="0.5"/>
    <g id="Group-6" data-name="Group" transform="translate(33.368 83.326)" opacity="0.5">
      <rect id="Rectangle-2" data-name="Rectangle" width="0.959" height="5.863" transform="translate(2.237 0)" fill="#47e6b1"/>
      <rect id="Rectangle-3" data-name="Rectangle" width="1.035" height="5.432" transform="translate(5.432 2.414) rotate(90)" fill="#47e6b1"/>
    </g>
    <g id="Group-7" data-name="Group" transform="translate(267.723 57.718)" opacity="0.5">
      <rect id="Rectangle-4" data-name="Rectangle" width="0.959" height="5.863" transform="translate(2.237 0)" fill="#47e6b1"/>
      <rect id="Rectangle-5" data-name="Rectangle" width="1.035" height="5.432" transform="translate(5.432 2.414) rotate(90)" fill="#47e6b1"/>
    </g>
    <g id="Group-8" data-name="Group" transform="translate(235.131 147.735)" opacity="0.5">
      <rect id="Rectangle-6" data-name="Rectangle" width="0.959" height="5.863" transform="translate(2.237 0)" fill="#47e6b1"/>
      <rect id="Rectangle-7" data-name="Rectangle" width="1.035" height="5.432" transform="translate(5.432 2.414) rotate(90)" fill="#47e6b1"/>
    </g>
    <circle id="Oval-11" data-name="Oval" cx="1.94" cy="1.94" r="1.94" transform="translate(232.803 24.832)" fill="#f55f44" opacity="0.5"/>
    <circle id="Oval-12" data-name="Oval" cx="1.94" cy="1.94" r="1.94" transform="translate(0 2.328)" fill="#f55f44" opacity="0.5"/>
    <circle id="Oval-13" data-name="Oval" cx="1.94" cy="1.94" r="1.94" transform="translate(58.977 114.073)" fill="#f55f44" opacity="0.5"/>
    <ellipse id="Oval-14" data-name="Oval" cx="10.864" cy="2.328" rx="10.864" ry="2.328" transform="translate(65.185 48.113)" opacity="0.05"/>
    <ellipse id="Oval-15" data-name="Oval" cx="10.864" cy="2.328" rx="10.864" ry="2.328" transform="translate(65.185 65.185)" opacity="0.05"/>
    <ellipse id="Oval-16" data-name="Oval" cx="10.864" cy="2.328" rx="10.864" ry="2.328" transform="translate(190.898 48.113)" opacity="0.05"/>
    <ellipse id="Oval-17" data-name="Oval" cx="10.864" cy="2.328" rx="10.864" ry="2.328" transform="translate(190.898 65.185)" opacity="0.05"/>
    <ellipse id="Oval-18" data-name="Oval" cx="10.864" cy="2.328" rx="10.864" ry="2.328" transform="translate(129.593 38.024)" opacity="0.05"/>
    <ellipse id="Oval-19" data-name="Oval" cx="10.864" cy="2.328" rx="10.864" ry="2.328" transform="translate(137.354 14.744)" opacity="0.05"/>
    <ellipse id="Oval-20" data-name="Oval" cx="10.864" cy="2.328" rx="10.864" ry="2.328" transform="translate(116.401 24.056)" opacity="0.05"/>
    <ellipse id="Oval-21" data-name="Oval" cx="10.864" cy="2.328" rx="10.864" ry="2.328" transform="translate(157.53 27.936)" opacity="0.05"/>
    <ellipse id="Oval-22" data-name="Oval" cx="10.864" cy="2.328" rx="10.864" ry="2.328" transform="translate(129.593 72.169)" opacity="0.05"/>
  </g>
  <text id="_404" data-name="404" transform="translate(136.391 255.562)" font-size="116" font-family="Montserrat-SemiBold, Montserrat" font-weight="600"><tspan x="-106.778" y="0">505</tspan></text>
</svg>
