<?xml version="1.0" encoding="iso-8859-1"?>
<!-- Generator: Adobe Illustrator 19.1.0, SVG Export Plug-In . SVG Version: 6.00 Build 0)  -->
<svg xmlns="http://www.w3.org/2000/svg" width="23.091" height="16.104" viewBox="0 0 23.091 16.104">
  <path id="Combined_Shape" data-name="Combined Shape" d="M8.609,15.811.189,7.391a1,1,0,0,1,0-1.415L.545,5.62a1,1,0,0,1,1.414,0l7.373,7.373L20.831.408a1.252,1.252,0,0,1,1.81-.04,1.211,1.211,0,0,1,.037,1.654l-12.3,13.466a1.258,1.258,0,0,1-.21.184l-.14.14a1,1,0,0,1-1.415,0Z" transform="translate(0.104 0)" fill="#08a05c"/>
</svg>