<?xml version="1.0" encoding="iso-8859-1"?>
<!-- Generator: Adobe Illustrator 19.1.0, SVG Export Plug-In . SVG Version: 6.00 Build 0)  -->
<svg xmlns="http://www.w3.org/2000/svg" xmlns:xlink="http://www.w3.org/1999/xlink" width="143.613" height="50.587" viewBox="0 0 143.613 50.587">
  <defs>
    <filter id="Path_2258" x="0" y="0" width="143.613" height="50.587" filterUnits="userSpaceOnUse">
      <feOffset dy="2" input="SourceAlpha"/>
      <feGaussianBlur stdDeviation="0.5" result="blur"/>
      <feFlood flood-opacity="0.839"/>
      <feComposite operator="in" in2="blur"/>
      <feComposite in="SourceGraphic"/>
    </filter>
  </defs>
  <g transform="matrix(1, 0, 0, 1, 0, 0)" filter="url(#Path_2258)">
    <path id="Path_2258-2" data-name="Path 2258" d="M87.212,355.9l7.183-6.385H59.288S50.5,349.491,50.5,355.9v32.721s.007,7.981,6.7,7.981h79.01s6.225-.479,6.225-6.7V375.37s0-6.7-7.981-6.7h-24.9s-2.873.16-2.873-2.075v-8.939a2.349,2.349,0,0,1,2.634-2.634h37.909V396.6H190.8l-5.108-5.108H158.56a2.3,2.3,0,0,1-2.474-2.474V377.285a2.388,2.388,0,0,1,2.674-2.673h27.893v-6.105H157.762a1.954,1.954,0,0,1-2-2v-9.5a1.993,1.993,0,0,1,2.035-2.035h28.052l5.259-5.259H106.046s-8.46-.229-8.46,5.858v13.088s.958,5.666,5.666,5.666h27.853a2.54,2.54,0,0,1,2.594,2.594v11.053a2.208,2.208,0,0,1-2.255,2.255H62.95s-3.681-.011-3.681-3.681V359.887s.02-4.075,4.075-4.075C67.1,355.812,87.212,355.9,87.212,355.9Z" transform="translate(-49 -349.51)" fill="#000"/>
  </g>
</svg>