<svg xmlns="http://www.w3.org/2000/svg" width="25" height="25" viewBox="0 0 25 25">
  <g id="Icon_ionic-ios-add-circle-outline" data-name="Icon ionic-ios-add-circle-outline" transform="translate(-3.375 -3.375)">
    <path id="Path_2267" data-name="Path 2267" d="M20.433,15.069H16.681V11.317a.806.806,0,1,0-1.612,0v3.752H11.317a.772.772,0,0,0-.806.806.78.78,0,0,0,.806.806h3.752v3.752a.78.78,0,0,0,.806.806.8.8,0,0,0,.806-.806V16.681h3.752a.806.806,0,0,0,0-1.612Z" fill="#000"/>
    <path id="Path_2268" data-name="Path 2268" d="M15.875,5.058a10.813,10.813,0,1,1-7.65,3.167,10.746,10.746,0,0,1,7.65-3.167m0-1.683a12.5,12.5,0,1,0,12.5,12.5,12.5,12.5,0,0,0-12.5-12.5Z" fill="#000"/>
  </g>
</svg>
