<?xml version="1.0" encoding="utf-8"?>
<!-- Generator: Adobe Illustrator 25.1.0, SVG Export Plug-In . SVG Version: 6.00 Build 0)  -->
<svg version="1.1" id="Capa_1" xmlns="http://www.w3.org/2000/svg" xmlns:xlink="http://www.w3.org/1999/xlink" x="0px" y="0px"
	 viewBox="0 0 512 512" style="enable-background:new 0 0 512 512;" xml:space="preserve">
<style type="text/css">
	.st0{fill:#FFFFFF;stroke:#FFFFFF;stroke-width:7;stroke-miterlimit:10;}
</style>
<g>
	<g>
		<path class="st0" d="M226.5,6.6C104.9,6.6,6,105.2,6,226.5s98.9,219.9,220.5,219.9S447,347.7,447,226.5S348.1,6.6,226.5,6.6z
			 M226.5,410.2c-101.6,0-184.3-82.4-184.3-183.7c0-101.3,82.7-183.7,184.3-183.7s184.3,82.4,184.3,183.7
			C410.8,327.8,328.1,410.2,226.5,410.2z"/>
	</g>
</g>
<g>
	<g>
		<path class="st0" d="M500.7,474.5L382,356.4c-7.1-7-18.5-7-25.6,0.1c-7,7.1-7,18.5,0.1,25.6l118.7,118.1c3.5,3.5,8.1,5.3,12.7,5.3
			c4.6,0,9.3-1.8,12.8-5.3C507.8,493,507.7,481.6,500.7,474.5z"/>
	</g>
</g>
</svg>
