<svg fill="#FFF" id="Icons" height="512" viewBox="0 0 74 74" width="512" xmlns="http://www.w3.org/2000/svg"><path d="m58.169 34.57a1 1 0 0 1 -.8-1.591l1.76-2.4a1 1 0 0 1 1.612 1.182l-1.76 2.4a1 1 0 0 1 -.812.409z"/><path d="m42.979 55.35a1.007 1.007 0 0 1 -.546-.162l-18.97-12.38a1 1 0 0 1 .063-1.713l34.314-18.95-41.111 15.789a1.006 1.006 0 0 1 -.917-.1l-13.37-8.994a1 1 0 0 1 .384-1.815l67.984-11.987a1 1 0 0 1 .527.041h.027.006a1 1 0 0 1 .516.466 1.008 1.008 0 0 1 .054.122 1 1 0 0 1 .036.56 1.006 1.006 0 0 1 -.073.21.97.97 0 0 1 -.107.177l-6.929 9.486a1 1 0 1 1 -1.614-1.181l4.268-5.835-41.572 22.958 16.783 10.952 4.65-6.364a1 1 0 0 1 1.618 1.18l-5.21 7.13a1 1 0 0 1 -.811.41zm-37.363-26.786 10.884 7.316 44.455-17.073z"/><path d="m52.319 42.57a1 1 0 0 1 -.806-1.591l1.72-2.35a1 1 0 0 1 1.614 1.182l-1.721 2.35a1 1 0 0 1 -.807.409z"/><path d="m24.008 58.981a1 1 0 0 1 -.939-.658l-7.642-20.983a1 1 0 1 1 1.879-.685l5.7 15.658v-10.34a1 1 0 0 1 2 0v16.008a1 1 0 0 1 -.826.985 1.031 1.031 0 0 1 -.172.015z"/><path d="m24.009 58.976a1 1 0 0 1 -.648-1.763l10.669-9.05a1 1 0 1 1 1.294 1.525l-10.669 9.051a1 1 0 0 1 -.646.237z"/></svg>