<?xml version="1.0" encoding="utf-8"?>
<!-- Generator: Adobe Illustrator 25.1.0, SVG Export Plug-In . SVG Version: 6.00 Build 0)  -->
<svg version="1.1" id="Layer_1" xmlns="http://www.w3.org/2000/svg" xmlns:xlink="http://www.w3.org/1999/xlink" x="0px" y="0px"
	 viewBox="0 0 25 25" style="enable-background:new 0 0 25 25;" xml:space="preserve">
<style type="text/css">
	.st0{fill:none;stroke:#FFFFFF;stroke-miterlimit:10;}
</style>
<path id="Icon_awesome-user-circle" class="st0" d="M12.5,0.5c-6.6,0-12,5.4-12,12s5.4,12,12,12s12-5.4,12-12l0,0
	C24.5,5.9,19.1,0.5,12.5,0.5z M12.5,5.1c2.4,0,4.3,1.9,4.3,4.3s-1.9,4.3-4.3,4.3s-4.3-1.9-4.3-4.3C8.2,7.1,10.1,5.1,12.5,5.1
	C12.5,5.1,12.5,5.1,12.5,5.1L12.5,5.1z M12.5,21.8c-2.7,0-5.3-1.2-7.1-3.3c0.9-1.8,2.8-2.9,4.8-2.9c0.1,0,0.2,0,0.3,0.1
	c0.6,0.2,1.3,0.3,2,0.3c0.7,0,1.3-0.1,2-0.3c0.1,0,0.2-0.1,0.3-0.1c2,0,3.8,1.1,4.8,2.9C17.8,20.6,15.2,21.8,12.5,21.8L12.5,21.8z"
	/>
</svg>
